# xmcd
#
# Track frame offsets:
#   150
#   26401
#   56127
#   80402
#   101355
#   141533
#   169328
#
# Disc length: 2513 seconds
#
# Revision: 0
# Processed by: cddbd v1.5.2PL0 Copyright (c) Steve Scherf et al.
# Submitted via: GXTranscoder 2.0.1939
#
DISCID=5b09cf07
DTITLE=Hot Chocolate - Going Through The Motions
DYEAR=1900
DGENRE=Blues
TTITLE0=Going Through The Motions
TTITLE1=I Just Love What You´re Doing
TTITLE2=Dreaming Of You
TTITLE3=Dance (Get Down To It)
TTITLE4=Mindless Boogie
TTITLE5=Night Ride
TTITLE6=Congas Man
EXTD=
EXTT0=
EXTT1=
EXTT2=
EXTT3=
EXTT4=
EXTT5=
EXTT6=
PLAYORDER=
